<?xml version="1.0" encoding="iso-8859-1"?>
<!-- Uploaded to: SVG Repo, www.svgrepo.com, Generator: SVG Repo Mixer Tools -->
<svg height="800px" width="800px" version="1.1" id="Layer_1" xmlns="http://www.w3.org/2000/svg" xmlns:xlink="http://www.w3.org/1999/xlink" 
	 viewBox="0 0 507.879 507.879" xml:space="preserve">
<polygon style="fill:#FFD6A4;" points="366.754,230.184 141.126,230.184 36.991,438.455 36.991,507.879 470.889,507.879 
	470.889,438.455 "/>
<g>
	<path style="fill:#DDAE76;" d="M145.465,224.977c25.166-30.373,65.085-98.929,65.085-98.929h-78.102
		c22.563,30.373,21.695,65.953,8.678,104.136L145.465,224.977z"/>
	<path style="fill:#DDAE76;" d="M358.076,221.506c-25.166-30.373-38.183-61.614-60.746-95.458c5.207,0,78.102,0,78.102,0
		c-22.563,30.373-21.695,65.953-8.678,104.136L358.076,221.506z"/>
</g>
<path style="fill:#F8C787;" d="M356.34,217.167c-23.431-28.637-38.183-60.746-59.01-91.119c-9.546,9.546-29.505,17.356-43.39,17.356
	s-33.844-7.81-43.39-17.356c-22.563,33.844-39.919,68.556-65.085,98.929l-4.339,5.207h225.627l-7.81-9.546
	C358.076,219.77,357.208,218.903,356.34,217.167"/>
<g>
	<path style="fill:#DDAE76;" d="M201.872,93.072c0-0.868-0.868-1.736-1.736-1.736c-8.678-0.868-15.62-12.149-15.62-26.034
		c0-9.546,3.471-18.224,8.678-22.563s8.678-10.414,8.678-17.356v-7.81c0-6.075,3.471-10.414,8.678-12.149V4.557h-26.034
		l-52.068,121.492h78.102v-6.075C205.343,112.164,201.872,102.618,201.872,93.072"/>
	<path style="fill:#DDAE76;" d="M323.364,4.557H297.33v0.868c5.207,1.736,8.678,6.942,8.678,12.149v7.81
		c0,6.942,3.471,13.017,8.678,17.356s8.678,13.017,8.678,22.563c0,13.885-6.942,25.166-15.62,26.034
		c-0.868,0-1.736,0.868-1.736,1.736c0,10.414-3.471,19.092-8.678,26.902v6.075h78.102L323.364,4.557z"/>
	<path style="fill:#DDAE76;" d="M253.94,412.421h-69.424c-5.207,0-8.678-3.471-8.678-8.678s3.471-8.678,8.678-8.678h69.424
		c5.207,0,8.678,3.471,8.678,8.678S259.147,412.421,253.94,412.421"/>
	<path style="fill:#DDAE76;" d="M279.974,377.709h-34.712c-5.207,0-8.678-3.471-8.678-8.678s3.471-8.678,8.678-8.678h34.712
		c5.207,0,8.678,3.471,8.678,8.678S285.181,377.709,279.974,377.709"/>
	<path style="fill:#DDAE76;" d="M245.262,342.998h-86.78c-5.207,0-8.678-3.471-8.678-8.678s3.471-8.678,8.678-8.678h86.78
		c5.207,0,8.678,3.471,8.678,8.678C253.94,339.526,250.469,342.998,245.262,342.998"/>
	<path style="fill:#DDAE76;" d="M253.94,308.286h-60.746c-5.207,0-8.678-3.471-8.678-8.678s3.471-8.678,8.678-8.678h60.746
		c5.207,0,8.678,3.471,8.678,8.678S259.147,308.286,253.94,308.286"/>
	<path style="fill:#DDAE76;" d="M314.686,273.574H253.94c-5.207,0-8.678-3.471-8.678-8.678s3.471-8.678,8.678-8.678h60.746
		c5.207,0,8.678,3.471,8.678,8.678S319.893,273.574,314.686,273.574"/>
	<path style="fill:#DDAE76;" d="M449.194,395.065H340.72c-5.207,0-8.678,3.471-8.678,8.678s3.471,8.678,8.678,8.678h117.153
		L449.194,395.065z"/>
	<path style="fill:#DDAE76;" d="M431.838,360.354H314.686c-5.207,0-8.678,3.471-8.678,8.678s3.471,8.678,8.678,8.678h125.831
		L431.838,360.354z"/>
	<path style="fill:#DDAE76;" d="M306.008,342.998h117.153l-8.678-17.356H306.008c-5.207,0-8.678,3.471-8.678,8.678
		C297.33,339.526,300.801,342.998,306.008,342.998"/>
	<path style="fill:#DDAE76;" d="M397.126,290.93H288.652c-5.207,0-8.678,3.471-8.678,8.678s3.471,8.678,8.678,8.678h117.153
		L397.126,290.93z"/>
	<path style="fill:#DDAE76;" d="M349.398,273.574h39.051l-8.678-17.356h-30.373c-5.207,0-8.678,3.471-8.678,8.678
		C340.72,270.103,344.191,273.574,349.398,273.574"/>
	<path style="fill:#DDAE76;" d="M193.194,256.218h-65.085l-8.678,17.356h73.763c5.207,0,8.678-3.471,8.678-8.678
		C201.872,259.689,198.401,256.218,193.194,256.218"/>
	<path style="fill:#DDAE76;" d="M158.482,290.93h-47.729l-8.678,17.356h56.407c5.207,0,8.678-3.471,8.678-8.678
		S163.689,290.93,158.482,290.93"/>
	<path style="fill:#DDAE76;" d="M115.093,342.998c5.207,0,8.678-3.471,8.678-8.678s-3.471-8.678-8.678-8.678H93.398l-8.678,17.356
		L115.093,342.998L115.093,342.998z"/>
	<path style="fill:#DDAE76;" d="M167.16,360.354H76.042l-8.678,17.356h99.797c5.207,0,8.678-3.471,8.678-8.678
		C175.838,363.825,172.367,360.354,167.16,360.354"/>
	<path style="fill:#DDAE76;" d="M123.77,412.421c5.207,0,8.678-3.471,8.678-8.678s-3.471-8.678-8.678-8.678H58.686l-8.678,17.356
		L123.77,412.421L123.77,412.421z"/>
	<path style="fill:#DDAE76;" d="M253.94,481.845h-34.712c-5.207,0-8.678-3.471-8.678-8.678s3.471-8.678,8.678-8.678h34.712
		c5.207,0,8.678,3.471,8.678,8.678S259.147,481.845,253.94,481.845"/>
	<path style="fill:#DDAE76;" d="M245.262,447.133h-86.78c-5.207,0-8.678-3.471-8.678-8.678s3.471-8.678,8.678-8.678h86.78
		c5.207,0,8.678,3.471,8.678,8.678C253.94,443.662,250.469,447.133,245.262,447.133"/>
	<path style="fill:#DDAE76;" d="M375.432,464.489h-60.746c-5.207,0-8.678,3.471-8.678,8.678s3.471,8.678,8.678,8.678h69.424
		L375.432,464.489z"/>
	<path style="fill:#DDAE76;" d="M167.16,464.489H76.042l-8.678,17.356h99.797c5.207,0,8.678-3.471,8.678-8.678
		S172.367,464.489,167.16,464.489"/>
	<path style="fill:#DDAE76;" d="M470.889,438.455l-4.339-8.678H306.008c-5.207,0-8.678,3.471-8.678,8.678s3.471,8.678,8.678,8.678
		h164.881V438.455z"/>
	<path style="fill:#DDAE76;" d="M36.991,447.133h78.102c5.207,0,8.678-3.471,8.678-8.678s-3.471-8.678-8.678-8.678H41.33
		l-4.339,8.678C36.991,438.455,36.991,447.133,36.991,447.133z"/>
</g>
<g>
	<path style="fill:#F8C787;" d="M123.77,438.455H36.991c-19.092,0-34.712,15.62-34.712,34.712v26.034
		c0,5.207,3.471,8.678,8.678,8.678h138.847c5.207,0,8.678-3.471,8.678-8.678v-26.034
		C158.482,454.076,142.862,438.455,123.77,438.455"/>
	<path style="fill:#F8C787;" d="M470.889,438.455h-86.78c-19.092,0-34.712,15.62-34.712,34.712v26.034
		c0,5.207,3.471,8.678,8.678,8.678h138.847c5.207,0,8.678-3.471,8.678-8.678v-26.034
		C505.601,454.076,489.981,438.455,470.889,438.455"/>
</g>
<g>
	<polygon style="fill:#DDAE76;" points="36.991,507.879 54.347,507.879 54.347,473.167 36.991,473.167 	"/>
	<polygon style="fill:#DDAE76;" points="71.703,507.879 89.059,507.879 89.059,473.167 71.703,473.167 	"/>
	<polygon style="fill:#DDAE76;" points="106.415,507.879 123.77,507.879 123.77,473.167 106.415,473.167 	"/>
	<polygon style="fill:#DDAE76;" points="384.109,507.879 401.465,507.879 401.465,473.167 384.109,473.167 	"/>
	<polygon style="fill:#DDAE76;" points="418.821,507.879 436.177,507.879 436.177,473.167 418.821,473.167 	"/>
	<polygon style="fill:#DDAE76;" points="453.533,507.879 470.889,507.879 470.889,473.167 453.533,473.167 	"/>
</g>
<path style="fill:#FFD6A4;" d="M253.94,152.082c28.637,0,51.2-22.563,52.068-50.332c0-0.868,0.868-1.736,1.736-1.736
	c8.678-0.868,15.62-20.827,15.62-34.712c0-9.546-3.471-18.224-8.678-22.563s-8.678-10.414-8.678-17.356v-7.81
	c0-5.207-4.339-11.281-9.546-12.149l-3.471-0.868c-26.034-6.075-52.936-6.075-78.102,0l-3.471,0.868
	c-5.207,0.868-9.546,6.942-9.546,12.149v7.81c0,6.942-3.471,13.017-8.678,17.356s-8.678,13.017-8.678,22.563
	c0,13.885,6.942,33.844,15.62,34.712c0.868,0,1.736,0.868,1.736,1.736C202.74,129.52,225.303,152.082,253.94,152.082"/>
<g>
	<path style="fill:#DDAE76;" d="M227.906,73.981h-8.678c-5.207,0-8.678-3.471-8.678-8.678s3.471-8.678,8.678-8.678h8.678
		c5.207,0,8.678,3.471,8.678,8.678S233.113,73.981,227.906,73.981"/>
	<path style="fill:#DDAE76;" d="M288.652,73.981h-8.678c-5.207,0-8.678-3.471-8.678-8.678s3.471-8.678,8.678-8.678h8.678
		c5.207,0,8.678,3.471,8.678,8.678S293.859,73.981,288.652,73.981"/>
	<path style="fill:#DDAE76;" d="M262.618,117.37h-17.356c-5.207,0-8.678-3.471-8.678-8.678s3.471-8.678,8.678-8.678h17.356
		c5.207,0,8.678,3.471,8.678,8.678S267.825,117.37,262.618,117.37"/>
</g>
</svg>